<svg width="460" height="164" viewBox="0 0 460 164" fill="none" xmlns="http://www.w3.org/2000/svg">
<path d="M147.086 55.0571V44.7486C132.61 44.7486 120.84 56.3457 120.84 70.6371V80.9457C120.84 95.2371 132.551 106.834 147.086 106.834C161.621 106.834 173.331 95.2371 173.331 80.9457C173.331 66.6543 161.562 55.0571 147.086 55.0571Z" fill="#BBBF28"/>
<path d="M407.127 53.5929V40.7657C389.12 40.7657 374.526 55.1743 374.526 72.98V85.8072C374.526 103.613 389.12 118.021 407.127 118.021C425.134 118.021 439.728 103.613 439.728 85.8072C439.728 68.0014 425.134 53.5929 407.127 53.5929Z" stroke="#00A4C2" stroke-width="4" stroke-miterlimit="10"/>
<path d="M107.07 140.63V146.546C115.368 146.546 122.135 139.869 122.135 131.669V125.753C122.135 117.553 115.427 110.876 107.07 110.876C98.7731 110.876 92.0058 117.553 92.0058 125.753C92.0058 134.011 98.7731 140.63 107.07 140.63Z" stroke="#FC7613" stroke-width="4" stroke-miterlimit="10"/>
<path d="M338.924 20.2657V16.6343C333.863 16.6343 329.744 20.6757 329.744 25.6543V29.2857C329.744 34.2643 333.863 38.3057 338.924 38.3057C343.985 38.3057 348.104 34.2643 348.104 29.2857C348.104 24.3071 343.985 20.2657 338.924 20.2657Z" fill="#5B2C82"/>
<path d="M34.925 36.7829V34.2643C31.3354 34.2643 28.4519 37.1343 28.4519 40.6486V43.1671C28.4519 46.6814 31.3354 49.5514 34.925 49.5514C38.5146 49.5514 41.3981 46.6814 41.3981 43.1671C41.3981 39.6529 38.5146 36.7829 34.925 36.7829Z" fill="#5B2C82"/>
<path d="M428.665 118.49V121.536C432.902 121.536 436.374 118.139 436.374 113.921V110.876C436.374 106.659 432.96 103.261 428.665 103.261C424.428 103.261 420.956 106.659 420.956 110.876C420.956 115.093 424.428 118.49 428.665 118.49Z" fill="#5B2C82"/>
<path d="M374.232 74.7957C358.167 74.7957 345.103 87.6814 345.103 103.554C345.103 119.427 358.167 132.313 374.232 132.313V143.793C390.297 143.793 403.361 130.907 403.361 115.034V103.554C403.42 87.6814 390.356 74.7957 374.232 74.7957Z" fill="#BBBF28"/>
<path d="M111.543 16.6929C103.716 16.6929 97.4196 22.96 97.4196 30.6329C97.4196 38.3643 103.716 44.5729 111.543 44.5729V50.1372C119.369 50.1372 125.666 43.87 125.666 36.1972V30.6329C125.666 22.9014 119.31 16.6929 111.543 16.6929Z" fill="#00A4C2"/>
<path d="M182.805 59.2157C164.975 65.19 152.441 79.4228 152.441 95.9986C152.441 105.897 156.972 114.976 164.387 121.946C164.092 127.92 162.739 134.773 160.208 140.981C159.502 142.68 161.032 144.496 162.857 144.027C173.449 141.45 180.393 137.35 184.688 133.309C189.926 134.89 195.634 135.769 201.518 135.769C213.641 135.769 224.763 132.196 233.354 126.28" stroke="#FC7613" stroke-width="6" stroke-miterlimit="10"/>
<path d="M233.354 46.74V63.55" stroke="#FC7613" stroke-width="6" stroke-miterlimit="10"/>
<path d="M263.719 46.74V63.55" stroke="#FC7613" stroke-width="6" stroke-miterlimit="10"/>
<path d="M291.788 101.563C301.498 92.8943 307.5 81.2971 307.5 68.5286C307.5 41.6443 281.078 19.8557 248.478 19.8557C215.877 19.8557 189.455 41.6443 189.455 68.5286C189.455 95.4129 215.877 117.201 248.478 117.201C254.009 117.201 259.305 116.557 264.366 115.386C270.31 120.716 279.666 126.104 293.613 129.501C296.084 130.087 298.203 127.627 297.261 125.284C294.201 117.611 292.436 109.236 291.788 101.563Z" stroke="#FC7613" stroke-width="6" stroke-miterlimit="10"/>
<path d="M287.316 66.8886C287.316 83.5814 269.957 97.1114 248.537 97.1114C227.117 97.1114 209.757 83.5814 209.757 66.8886" stroke="#FC7613" stroke-width="6" stroke-miterlimit="10"/>
<path d="M375.232 109.119C377.704 107.361 379.763 104.784 379.763 101.739C379.763 101.739 379.763 98.81 379.763 98.2829C379.763 97.6971 381.235 96.2329 381.235 93.5971C381.235 90.9614 380.587 89.7314 379.293 88.7943C377.763 87.74 375.409 87.6814 375.409 89.0871V90.2586C375.409 93.4214 373.29 95.4714 371.348 97.1114C371.348 97.1114 368.406 99.4543 367.288 99.4543C366.17 99.4543 360.756 99.4543 360.756 99.4543V114.039H365.993C368.583 114.039 367.994 116.967 371.702 116.967C372.408 116.967 385.53 116.967 385.53 116.967C386.825 116.967 388.296 115.503 388.296 114.273L390.12 104.433C390.532 101.973 388.649 99.5128 386.119 99.5128H382.706" stroke="#FAFAFA" stroke-width="4" stroke-miterlimit="10"/>
<path d="M42.3396 131.2C54.5208 131.2 64.4069 121.419 64.4069 109.411C64.4069 97.3457 54.5208 87.6229 42.3396 87.6229V78.9543C30.1585 78.9543 20.2723 88.7357 20.2723 100.743V109.411C20.2723 121.477 30.1585 131.2 42.3396 131.2Z" fill="#BB0F73"/>
<path d="M41.6335 105.253C39.7504 106.6 38.2204 108.533 38.2204 110.817C38.2204 110.817 38.2204 113.043 38.2204 113.453C38.2204 113.921 37.1023 115.034 37.1023 117.026C37.1023 119.017 37.5731 119.954 38.5735 120.657C39.7504 121.477 41.5158 121.536 41.5158 120.423V119.486C41.5158 117.084 43.1046 115.503 44.5758 114.331C44.5758 114.331 46.8119 112.574 47.6358 112.574C48.4596 112.574 52.5789 112.574 52.5789 112.574V101.563H48.6362C46.6942 101.563 47.1062 99.3372 44.3404 99.3372C43.8108 99.3372 33.8658 99.3372 33.8658 99.3372C32.9242 99.3372 31.8062 100.45 31.8062 101.387L30.3939 108.826C30.0996 110.7 31.5119 112.574 33.395 112.574H35.9842" stroke="#FAFAFA" stroke-width="3.0305" stroke-miterlimit="10"/>
<path d="M80.7661 33.1514H58.4635C56.1096 33.1514 54.2265 35.0257 54.2265 37.3686V55.35C54.2265 57.6929 56.1096 59.5671 58.4635 59.5671H70.4681L77.8827 67.1814C78.53 67.8843 79.7069 67.4157 79.7069 66.42V59.5086H80.7661C83.12 59.5086 85.0031 57.6343 85.0031 55.2914V37.3686C85.0619 35.0257 83.12 33.1514 80.7661 33.1514Z" stroke="#BBBF28" stroke-width="3" stroke-miterlimit="10"/>
<path d="M60.5819 40.5314H78.6477" stroke="#BBBF28" stroke-width="3" stroke-miterlimit="10"/>
<path d="M60.5819 45.8029H78.6477" stroke="#BBBF28" stroke-width="3" stroke-miterlimit="10"/>
<path d="M60.5819 51.1329H69.1146" stroke="#BBBF28" stroke-width="3" stroke-miterlimit="10"/>
<path d="M350.223 73.7414H335.335L332.216 77.6657L329.097 73.7414H326.743C325.86 73.7414 325.154 73.0386 325.154 72.16V60.4457C325.154 59.5671 325.86 58.8643 326.743 58.8643H350.282C351.164 58.8643 351.87 59.5671 351.87 60.4457V72.16C351.812 73.0386 351.105 73.7414 350.223 73.7414Z" stroke="#BB0F73" stroke-width="3" stroke-miterlimit="10"/>
<path d="M330.627 68.6457H340.807" stroke="#BB0F73" stroke-width="3" stroke-miterlimit="10"/>
<path d="M330.627 64.1943H346.339" stroke="#BB0F73" stroke-width="3" stroke-miterlimit="10"/>
</svg>
